# Blender 4.0.2
# www.blender.org
mtllib Book_Mesh.mtl
g Book_Book
v 0.110000 0.056005 -0.150000
v 0.110000 0.056005 0.150000
v 0.110000 0.000000 -0.150000
v 0.110000 0.000000 0.150000
v 0.110000 0.044540 -0.150000
v 0.110000 0.011465 -0.150000
v -0.105988 0.044540 0.150000
v -0.105988 0.011465 0.150000
v 0.110000 0.011465 0.150000
v 0.110000 0.044540 0.150000
v -0.105988 0.011465 -0.150000
v -0.105988 0.044540 -0.150000
v -0.117995 0.000000 0.150000
v -0.117995 0.056005 -0.150000
v -0.117995 0.000000 -0.150000
v -0.117995 0.056005 0.150000
vn -0.0000 -0.0000 1.0000
vn -0.0000 -0.0000 -1.0000
vn 1.0000 -0.0000 -0.0000
vn -1.0000 -0.0000 -0.0000
vn -0.0000 1.0000 -0.0000
vn -0.0000 -1.0000 -0.0000
vt 0.062922 0.817416
vt 0.062660 0.817416
vt 0.062660 0.815708
vt 0.062922 0.815708
vt 0.031916 0.968902
vt 0.031890 0.968876
vt 0.032023 0.968876
vt 0.031997 0.968902
vt 0.032059 0.967836
vt 0.032032 0.967809
vt 0.032166 0.967809
vt 0.032139 0.967836
vt 0.032032 0.967862
vt 0.032059 0.968572
vt 0.032032 0.968540
vt 0.062632 0.815708
vt 0.062632 0.818080
vt 0.062371 0.818080
vt 0.062371 0.815708
vt 0.063211 0.817416
vt 0.062950 0.817416
vt 0.062950 0.815708
vt 0.063211 0.815708
vt 0.032023 0.968929
vt 0.032023 0.969607
vt 0.031997 0.969639
vt 0.032166 0.967862
vt 0.032166 0.968540
vt 0.032139 0.968572
vt 0.031002 0.968787
vt 0.029997 0.968787
vt 0.029997 0.968653
vt 0.031002 0.968653
vt 0.031002 0.969604
vt 0.031002 0.969631
vt 0.029997 0.969631
vt 0.029997 0.969604
vt 0.031002 0.967809
vt 0.031002 0.967836
vt 0.029997 0.967836
vt 0.029997 0.967809
vt 0.031890 0.968929
vt 0.031916 0.969639
vt 0.031890 0.969607
vt 0.031002 0.967894
vt 0.031002 0.968572
vt 0.029997 0.968572
vt 0.029997 0.967894
vt 0.029997 0.969545
vt 0.029997 0.968867
vt 0.031002 0.968867
vt 0.031002 0.969545
s 0
usemtl Book
f 11/5/2 15/6/2 14/7/2 12/8/2
f 7/9/1 16/10/1 13/11/1 8/12/1
f 16/13/1 7/9/1 10/14/1 2/15/1
f 12/8/2 14/24/2 1/25/2 5/26/2
f 8/12/1 13/27/1 4/28/1 9/29/1
f 15/30/4 13/31/4 16/32/4 14/33/4
f 3/34/3 6/35/3 9/36/3 4/37/3
f 5/38/3 1/39/3 2/40/3 10/41/3
f 15/42/2 11/5/2 6/43/2 3/44/2
f 1/45/5 14/46/5 16/47/5 2/48/5
f 4/49/6 13/50/6 15/51/6 3/52/6
usemtl UberMaterial
f 7/1/1 8/2/1 9/3/1 10/4/1
f 5/16/3 10/17/3 9/18/3 6/19/3
f 11/20/2 12/21/2 5/22/2 6/23/2
